<svg xmlns="http://www.w3.org/2000/svg" width="816" height="1024" viewBox="0 0 204 256">
<rect width="204" height="256" fill="#684c49"/>
<circle cx="137.75" cy="160.5" r="51.5" fill="#e07650"/>
<circle cx="77" cy="195" r="35.75" fill="#000304" fill-opacity="0.824"/>
<circle cx="151" cy="225.75" r="34.5" fill="#fa6c3a" fill-opacity="0.82"/>
<circle cx="78.25" cy="129.5" r="24" fill="#ff6e3a" fill-opacity="0.765"/>
<circle cx="59.25" cy="63" r="39.75" fill="#7a8596" fill-opacity="0.965"/>
<circle cx="5.75" cy="242.25" r="40.5" fill="#0e0d11"/>
<circle cx="-8" cy="134.5" r="50.5" fill="#21222d"/>
<circle cx="-7.75" cy="28.5" r="67.25" fill="#001a32" fill-opacity="0.529"/>
<circle cx="212.75" cy="200.75" r="35" fill="#010710" fill-opacity="0.843"/>
<circle cx="86.5" cy="191.5" r="5.5" fill="#f1ecf0"/>
<circle cx="213.75" cy="42.25" r="80.25" fill="#445161"/>
<circle cx="122.25" cy="60.25" r="17.25" fill="#bd8769" fill-opacity="0.988"/>
<circle cx="121" cy="94.75" r="27.5" fill="#151b24" fill-opacity="0.722"/>
<circle cx="157" cy="121.75" r="15.75" fill="#f28358" fill-opacity="0.929"/>
<circle cx="126.75" cy="248" r="15" fill="#180000" fill-opacity="0.502"/>
<circle cx="50.5" cy="271.5" r="30.25" fill="#fa6b3c" fill-opacity="0.91"/>
<circle cx="212.75" cy="240.25" r="25.25" fill="#0d0d12"/>
<circle cx="207.5" cy="132.5" r="30.5" fill="#373c48"/>
<circle cx="58.75" cy="151" r="16" fill="#ff6d3b" fill-opacity="0.667"/>
<circle cx="88.75" cy="-8.75" r="56.25" fill="#375d77" fill-opacity="0.569"/>
<circle cx="42.25" cy="209.75" r="21.25" fill="#504946"/>
<circle cx="43.25" cy="174" r="4.5" fill="#efeaf2" fill-opacity="0.933"/>
<circle cx="160.5" cy="58.75" r="24.25" fill="#718499" fill-opacity="0.659"/>
<circle cx="88.25" cy="197.25" r="5.5" fill="#fbf8fc" fill-opacity="0.855"/>
<circle cx="109.75" cy="32.25" r="10.5" fill="#181211" fill-opacity="0.969"/>
<circle cx="102.75" cy="89.75" r="17.25" fill="#0b0c0e" fill-opacity="0.847"/>
<circle cx="-3.5" cy="182" r="25.75" fill="#11131c"/>
<circle cx="91.5" cy="265.5" r="24.75" fill="#f94f1f" fill-opacity="0.592"/>
<circle cx="84.25" cy="185.75" r="5.25" fill="#fffdff" fill-opacity="0.859"/>
<circle cx="118.5" cy="75.75" r="14" fill="#e5946b" fill-opacity="0.6"/>
<circle cx="39.25" cy="105.75" r="28.75" fill="#496272" fill-opacity="0.498"/>
<circle cx="141.25" cy="92" r="13.25" fill="#131417"/>
<circle cx="39.75" cy="180.75" r="4" fill="#ede7ec" fill-opacity="0.976"/>
<circle cx="149.5" cy="154" r="17.5" fill="#263a57" fill-opacity="0.341"/>
<circle cx="127.5" cy="154" r="4.75" fill="#f2eee9"/>
<circle cx="96.5" cy="144.25" r="11.25" fill="#39a8c3" fill-opacity="0.416"/>
<circle cx="48.75" cy="168" r="4.5" fill="#f1f1f9" fill-opacity="0.863"/>
<circle cx="197.75" cy="-7.75" r="32.25" fill="#080d1e" fill-opacity="0.341"/>
<circle cx="122.5" cy="197.25" r="12" fill="#823724" fill-opacity="0.624"/>
<circle cx="125.75" cy="236" r="12.5" fill="#261716" fill-opacity="0.843"/>
<circle cx="207.5" cy="155" r="21" fill="#1c2131" fill-opacity="0.91"/>
<circle cx="30.75" cy="247" r="7.5" fill="#e4603a" fill-opacity="0.898"/>
<circle cx="61.75" cy="165.5" r="9.25" fill="#f0fcff" fill-opacity="0.784"/>
<circle cx="125.5" cy="33.25" r="9" fill="#0f0d0b" fill-opacity="0.784"/>
<circle cx="34" cy="188.75" r="6" fill="#efe8e9" fill-opacity="0.984"/>
<circle cx="46.75" cy="233.5" r="13.25" fill="#7e4e48" fill-opacity="0.651"/>
<circle cx="68" cy="176" r="14.75" fill="#090a0a" fill-opacity="0.922"/>
<circle cx="98.5" cy="212.25" r="12.5" fill="#100b0a" fill-opacity="0.949"/>
<circle cx="164.75" cy="96.5" r="15.25" fill="#fff2f0" fill-opacity="0.188"/>
<circle cx="25.25" cy="188.75" r="10.25" fill="#943b25"/>
</svg>
