<svg xmlns="http://www.w3.org/2000/svg" width="848" height="1024" viewBox="0 0 212 256">
<rect width="212" height="256" fill="#66614a"/>
<polygon points="220.5,102 203.75,-9 -11.75,16.75" fill="#f7f5c2" fill-opacity="0.769"/>
<polygon points="227.5,258.25 -5.25,267.5 95.75,104.25" fill="#020609" fill-opacity="0.745"/>
<polygon points="205.5,271.5 167.5,97 226,125" fill="#171917" fill-opacity="0.996"/>
<polygon points="40.25,147.75 -14.75,7.25 122.25,0.75" fill="#ccae6b" fill-opacity="0.745"/>
<polygon points="173.75,7.5 161,229 117.25,65.5" fill="#665a41"/>
<polygon points="3.75,120.25 -9.25,268 126.75,181.5" fill="#1c1913" fill-opacity="0.902"/>
<polygon points="131,105.75 143.75,251.5 174.25,114.75" fill="#f5ebba" fill-opacity="0.769"/>
<polygon points="-13.25,173 89.5,140.75 99.25,-12.25" fill="#d6aa84" fill-opacity="0.333"/>
<polygon points="171.25,98.25 159.25,271 227.5,251" fill="#121411" fill-opacity="0.992"/>
<polygon points="135.25,97.75 50.75,157.75 110.5,233" fill="#1c201f"/>
<polygon points="-14.75,2 0.5,66.5 186,-0.75" fill="#a8dbd5" fill-opacity="0.51"/>
<polygon points="180.25,54 144.5,54.75 156.5,111.25" fill="#563e1f" fill-opacity="0.984"/>
<polygon points="33.75,58 39.75,126 -8.25,53" fill="#787747" fill-opacity="0.957"/>
<polygon points="214.75,71 227.5,5.5 149.75,4.5" fill="#b8d2b6" fill-opacity="0.784"/>
<polygon points="168.25,245.5 91,262 158.5,146.5" fill="#2d2f2d" fill-opacity="0.769"/>
<polygon points="23.75,75.5 149,76.75 158.75,18" fill="#debe82" fill-opacity="0.678"/>
<polygon points="154.5,97.5 217,120.25 220,70.75" fill="#4a1d10" fill-opacity="0.569"/>
<polygon points="87.75,9.75 83.25,65.75 116.25,66.25" fill="#403d31"/>
<polygon points="15,106 7,137 81.25,143.75" fill="#fffcba" fill-opacity="0.471"/>
<polygon points="49.5,140 92.25,125.75 68.5,52.5" fill="#352614" fill-opacity="0.592"/>
<polygon points="105,228.5 139.75,232.25 92.5,271.25" fill="#8e6946"/>
<polygon points="133,178 121.75,220 139.75,244.5" fill="#010300" fill-opacity="0.514"/>
<polygon points="90.75,5.75 102.75,18.25 55.75,60.25" fill="#a89972"/>
<polygon points="13,97.25 -15.5,93 12.75,158" fill="#292d22" fill-opacity="0.871"/>
<polygon points="71.5,172.75 30.75,136.25 -15.5,169.5" fill="#3f3929"/>
<polygon points="132,184.25 166.25,146.25 162.25,255.5" fill="#989b8a" fill-opacity="0.255"/>
<polygon points="226.75,71.75 189,71.25 188.75,104.5" fill="#806f53" fill-opacity="0.965"/>
<polygon points="55,139 45,148.5 22,127.75" fill="#eedaa5" fill-opacity="0.922"/>
<polygon points="82.25,148.25 61.5,132.5 87,131.5" fill="#9f9672"/>
<polygon points="137,49.75 147.75,63 130.75,61" fill="#4e402c"/>
<polygon points="72,59.5 17.25,59.75 36,45" fill="#837f45" fill-opacity="0.878"/>
<polygon points="115.5,232.5 115.25,186.5 121.75,209.25" fill="#897961"/>
<polygon points="52.75,60.75 29.75,93.75 47.75,116" fill="#dcb784" fill-opacity="0.631"/>
<polygon points="97,175.75 96.5,263.75 57.25,138" fill="#1a1b18"/>
<polygon points="78.25,132 152.75,75.75 62.5,75.5" fill="#5a4f30" fill-opacity="0.592"/>
<polygon points="72.25,88.75 141.5,89 99,102.25" fill="#bfb586"/>
<polygon points="102,3.5 227.25,5.75 169.75,-14" fill="#859b95" fill-opacity="0.839"/>
<polygon points="139.25,51.25 101.5,17.25 101.75,74" fill="#c2b07f"/>
<polygon points="156.25,83 132.75,72 142.5,144.5" fill="#b88b5b" fill-opacity="0.886"/>
<polygon points="174,120.75 136,107.75 150.25,175.25" fill="#eddda9" fill-opacity="0.757"/>
<polygon points="7.75,166.5 -9,253.25 30.25,270.75" fill="#020608" fill-opacity="0.447"/>
<polygon points="133,149 166,146.25 165.25,231.5" fill="#676b5f" fill-opacity="0.62"/>
<polygon points="53.75,124 135.5,91 74.5,91" fill="#493f2a" fill-opacity="0.831"/>
<polygon points="78.75,131.5 78.75,79.25 58.5,137.5" fill="#8da093" fill-opacity="0.388"/>
<polygon points="177,69.75 211,4.75 211,71.25" fill="#d0dec5" fill-opacity="0.659"/>
<polygon points="172,30.5 70.5,2.25 223.5,2.25" fill="#abbeb0" fill-opacity="0.718"/>
<polygon points="4.5,162 80.25,162.5 44.75,271.5" fill="#34240b" fill-opacity="0.8"/>
<polygon points="48.25,82 54,88.25 60.75,75.75" fill="#020008" fill-opacity="0.494"/>
<polygon points="131.75,187.5 96,113.75 134,99.5" fill="#1b2021" fill-opacity="0.933"/>
<polygon points="73,147.5 15.25,96 15,119" fill="#b49e6f" fill-opacity="0.651"/>
<polygon points="108.75,90.25 108.25,110 111.75,99.5" fill="#d9c48e"/>
<polygon points="121.5,238 134.25,267.75 146.25,234" fill="#030400" fill-opacity="0.62"/>
<polygon points="54.75,161 52.5,141.25 37,160.75" fill="#1c1f19" fill-opacity="0.988"/>
<polygon points="210.25,96.75 176,83.5 163.5,96.5" fill="#72633f" fill-opacity="0.761"/>
<polygon points="80.75,21.25 59,92.75 56.5,45.5" fill="#746548" fill-opacity="0.718"/>
<polygon points="77.75,82.25 72.75,97 69.5,60" fill="#2c2606" fill-opacity="0.667"/>
<polygon points="18.5,148.25 36.5,159.5 13.25,134.5" fill="#958765"/>
<polygon points="-15.5,79.75 35.25,93.75 28.75,66.5" fill="#695c3f" fill-opacity="0.882"/>
<polygon points="135.75,238.75 167.5,239.25 134.5,145.5" fill="#5f635b" fill-opacity="0.604"/>
<polygon points="210.25,118.25 166.75,94.25 174.5,170.75" fill="#141714" fill-opacity="0.8"/>
<polygon points="179,73.5 155.75,67.5 170,35" fill="#5c4c35" fill-opacity="0.725"/>
<polygon points="160.75,25.5 160.5,53.25 105.25,55.75" fill="#deb575" fill-opacity="0.6"/>
<polygon points="94.5,73.25 86.5,75 94,45.5" fill="#c0ad7d" fill-opacity="0.941"/>
<polygon points="159.75,51.5 152.5,56.75 167.25,55.25" fill="#000000" fill-opacity="0.624"/>
<polygon points="-15.5,42.5 53.75,39.25 13.25,58.25" fill="#cfd2a7" fill-opacity="0.843"/>
<polygon points="119.5,62.5 125.75,38 128,76.75" fill="#9d805d"/>
<polygon points="55.25,82.75 57.75,46.5 70.75,78" fill="#d5a96b" fill-opacity="0.627"/>
<polygon points="126.25,252.25 101,238.25 87.25,262.75" fill="#785b35" fill-opacity="0.961"/>
<polygon points="178.75,59 202.75,45 160,11.75" fill="#bcc99f" fill-opacity="0.961"/>
<polygon points="73.5,137 61.25,161.5 87.5,146.75" fill="#131410" fill-opacity="0.996"/>
<polygon points="62,89.5 54,140 36,129.25" fill="#c5905d" fill-opacity="0.569"/>
<polygon points="131.5,163.75 113.5,155.5 114.5,199.5" fill="#e4cba1" fill-opacity="0.427"/>
<polygon points="10.75,-13.25 -15.5,38.25 144.25,-4.75" fill="#8ea6a8" fill-opacity="0.278"/>
<polygon points="162.75,71.5 145,91.5 152,118" fill="#946b46" fill-opacity="0.882"/>
<polygon points="3.25,164.5 -15.5,135 3.25,93.75" fill="#807559" fill-opacity="0.875"/>
<polygon points="190.5,79 198,111.25 188.25,108.5" fill="#9f6d55"/>
<polygon points="165.75,192.5 126.75,194.5 168.75,163" fill="#7d7b66" fill-opacity="0.961"/>
<polygon points="60.75,89 64.25,80.25 60.75,82.75" fill="#230f00" fill-opacity="0.706"/>
<polygon points="151.75,11.25 97.5,12.75 124.5,39.5" fill="#bfd0b7" fill-opacity="0.804"/>
<polygon points="153.25,60.75 171.25,62 156.5,78.25" fill="#a68659" fill-opacity="0.561"/>
<polygon points="84.25,34.25 64.25,54 85.25,76" fill="#ccba87"/>
<polygon points="84.75,135.25 112.5,131 106.75,91.25" fill="#1a211f" fill-opacity="0.478"/>
<polygon points="132.5,229.5 116.75,232.75 116.5,172.75" fill="#201f1b" fill-opacity="0.784"/>
<polygon points="55.5,183.25 17.75,142.25 16.25,271.5" fill="#34250d" fill-opacity="0.733"/>
<polygon points="-15,99.75 0.75,149.75 1.75,96" fill="#3e3c2d"/>
<polygon points="211.25,64 227.5,100.25 196,99.75" fill="#877857" fill-opacity="0.984"/>
<polygon points="191.5,80.5 181.25,107.5 163.75,93.75" fill="#7b7e27" fill-opacity="0.671"/>
<polygon points="165.75,89 176.5,89.5 170.25,99.25" fill="#d2c59d" fill-opacity="0.996"/>
<polygon points="91.75,92 103.5,103.75 91.5,119.25" fill="#6d6b5b"/>
<polygon points="95,189.75 107.75,195.75 100.25,194.5" fill="#6e6657" fill-opacity="0.973"/>
<polygon points="29,102.75 47.25,65.75 30,73.75" fill="#866e43" fill-opacity="0.639"/>
<polygon points="99,18.25 103.25,24 92.75,41.5" fill="#a7976d" fill-opacity="0.804"/>
<polygon points="89.5,117.25 101.75,146.25 90.75,178.5" fill="#676454" fill-opacity="0.976"/>
<polygon points="59.5,60 37,53.75 53,48" fill="#3d3121" fill-opacity="0.467"/>
<polygon points="164.5,107 138.5,115.75 141,149.25" fill="#e2d4a0" fill-opacity="0.541"/>
<polygon points="91,46.75 82.5,49.25 99.75,49.25" fill="#dac998" fill-opacity="0.941"/>
<polygon points="127.25,34.75 136.75,27.5 131,29.75" fill="#452806" fill-opacity="0.678"/>
<polygon points="95.75,7.5 71.75,8.75 66.75,34.25" fill="#b8cfc2" fill-opacity="0.71"/>
<polygon points="-6.5,270.75 76,254.25 64.75,213.5" fill="#2b1d11" fill-opacity="0.886"/>
<polygon points="174.25,265.5 167,228.25 124.5,235.75" fill="#3f413e" fill-opacity="0.475"/>
<polygon points="39.5,127.5 18,104.25 25.5,89.25" fill="#8d815f" fill-opacity="0.984"/>
<polygon points="148.25,37.25 144.75,79.75 138.25,64.75" fill="#99714b" fill-opacity="0.6"/>
<polygon points="98,33.75 94.5,74 129.25,73.75" fill="#eaca88" fill-opacity="0.204"/>
<polygon points="164.75,202.75 189,135 167,128.5" fill="#222525" fill-opacity="0.675"/>
<polygon points="108.5,96.75 95.5,114.5 95.25,95.5" fill="#39371d" fill-opacity="0.886"/>
<polygon points="83.5,164 25.5,138.5 35.75,157.75" fill="#23231d" fill-opacity="0.757"/>
<polygon points="22.5,96.25 31.5,97 31.5,65.75" fill="#211900" fill-opacity="0.396"/>
<polygon points="62,95.5 58.5,79 49.25,94" fill="#ffd9a2" fill-opacity="0.439"/>
<polygon points="90,27 95.25,13.25 70.75,37.25" fill="#3a3f4b" fill-opacity="0.227"/>
<polygon points="43.5,163.5 33.5,158.5 54.75,162.5" fill="#ae9a70" fill-opacity="0.545"/>
<polygon points="142,23.75 166.5,24.25 171.25,65.75" fill="#aa8851" fill-opacity="0.525"/>
<polygon points="88.75,28.75 93.75,51.25 94.5,39.25" fill="#bdaf84" fill-opacity="0.796"/>
<polygon points="126,149.75 113.5,156.5 113,106.5" fill="#635d4d"/>
<polygon points="140.5,156.75 152.5,116.25 152,151.25" fill="#a6a986" fill-opacity="0.769"/>
<polygon points="114,108.5 138.25,186.5 115.75,188.75" fill="#1a1e1e" fill-opacity="0.973"/>
<polygon points="12.75,136.25 33,134.5 12.75,97.75" fill="#b4a172" fill-opacity="0.89"/>
<polygon points="75,34.75 62.25,42 82.25,21.75" fill="#ffe9aa" fill-opacity="0.58"/>
<polygon points="143.5,133 136.75,108 136.5,158.25" fill="#686443" fill-opacity="0.725"/>
<polygon points="138.25,114.25 161,149.25 138,150.5" fill="#e3d29a" fill-opacity="0.773"/>
<polygon points="107.25,70 97.25,67.25 87.5,70" fill="#706344"/>
<polygon points="149.5,159.75 134.25,192.75 149,197.75" fill="#7a7a66"/>
<polygon points="129.75,246.75 114,199.5 115,271.5" fill="#6f4b24" fill-opacity="0.412"/>
<polygon points="91.25,120.25 113.75,159.25 91.5,174.75" fill="#1d2322" fill-opacity="0.953"/>
<polygon points="133.75,109 155,91.75 136.25,93.5" fill="#be9363" fill-opacity="0.933"/>
<polygon points="227.5,112.5 196,111.25 196,101" fill="#794b35" fill-opacity="0.851"/>
<polygon points="62.5,82.5 67,108 70,89.75" fill="#eeaf85" fill-opacity="0.353"/>
<polygon points="26.75,88.5 16.5,90 27.25,91.5" fill="#fdf1ce" fill-opacity="0.482"/>
<polygon points="81.75,68 92.25,68.75 82.75,70.75" fill="#0f151a" fill-opacity="0.412"/>
<polygon points="68.5,35.75 52.25,52 62.5,46.25" fill="#feefb5" fill-opacity="0.612"/>
<polygon points="55,48 -15.5,47 18.5,10.25" fill="#bed1ab" fill-opacity="0.682"/>
<polygon points="28.5,140.25 -10,162 19.75,132.25" fill="#7d6b48"/>
<polygon points="104,195.25 129.25,193.75 116.75,198" fill="#ffdeac" fill-opacity="0.267"/>
<polygon points="161.75,163 159.5,183 150,191.75" fill="#a0956f"/>
<polygon points="15.75,108 16,96 -15.5,104.25" fill="#394939" fill-opacity="0.953"/>
<polygon points="131,81 143.75,86.75 154.75,69.25" fill="#ffc478" fill-opacity="0.337"/>
<polygon points="10.5,88 0,91 21,91" fill="#ead093" fill-opacity="0.388"/>
<polygon points="169.75,33 172.5,41.5 160.75,26.25" fill="#17170d" fill-opacity="0.706"/>
<polygon points="28,95.75 36.25,113 36.25,98.5" fill="#4c3d20"/>
<polygon points="186.25,57.75 181.5,87.5 168,76" fill="#dcd5a2" fill-opacity="0.839"/>
<polygon points="60,161.5 61.75,112 48.25,118.25" fill="#744d30" fill-opacity="0.498"/>
<polygon points="115,38.25 92.5,22.25 114,61.5" fill="#e5cf97" fill-opacity="0.533"/>
<polygon points="71.5,100.5 70.25,107.5 49.75,105.25" fill="#614531" fill-opacity="0.894"/>
<polygon points="137.25,152.25 134.5,196 144.75,188.25" fill="#69695b"/>
<polygon points="135.75,259 65.5,239.75 44.25,267.25" fill="#160909" fill-opacity="0.259"/>
<polygon points="14.25,135 59.25,153.75 30,154" fill="#16231d" fill-opacity="0.435"/>
<polygon points="66.5,131 60.25,138.75 62.75,110.5" fill="#54371d" fill-opacity="0.835"/>
<polygon points="76.5,98.75 104.5,94 78.75,91.25" fill="#686856"/>
<polygon points="39,106.75 67.25,103 29,87.75" fill="#d2a26f" fill-opacity="0.404"/>
<polygon points="83.5,28.5 96,19.25 84.75,38.25" fill="#b5ab86" fill-opacity="0.816"/>
<polygon points="52.25,96.5 70.25,102.75 71.25,95.25" fill="#3d260c" fill-opacity="0.412"/>
<polygon points="50.25,163.5 67,163.75 79.75,155.75" fill="#b29f7a" fill-opacity="0.267"/>
<polygon points="59.5,53 74,54.75 76,34.75" fill="#d3c090" fill-opacity="0.463"/>
<polygon points="42,47.5 44.75,82.25 30.75,66.75" fill="#f2c875" fill-opacity="0.259"/>
<polygon points="133.25,234.25 134.5,226.25 153.5,226.5" fill="#6c6c5d" fill-opacity="0.592"/>
<polygon points="182.5,90.75 164.75,90.5 173.25,98" fill="#474b14" fill-opacity="0.592"/>
<polygon points="73.75,160.25 64.25,145 46,161.5" fill="#1c1b17" fill-opacity="0.906"/>
<polygon points="223.25,25.75 173,86 177.75,55.25" fill="#ced5b0" fill-opacity="0.592"/>
<polygon points="146.25,116 168,113.25 154,111.25" fill="#485653" fill-opacity="0.243"/>
<polygon points="160.25,109.25 170.5,94 139,98.75" fill="#583d17" fill-opacity="0.486"/>
<polygon points="93,69.25 106,69 105,57" fill="#b69c6a" fill-opacity="0.525"/>
<polygon points="125.5,46.75 97,48 122.5,59" fill="#ceba85" fill-opacity="0.753"/>
<polygon points="123.25,59.25 139.5,97.75 137,58.25" fill="#bd9765" fill-opacity="0.702"/>
<polygon points="65.25,141.25 53,139.25 62.75,138" fill="#d5ca9f"/>
<polygon points="97.5,192.5 91.75,184.75 91,175.25" fill="#9a8d73" fill-opacity="0.467"/>
<polygon points="131,223 136.25,188.75 119.75,202.25" fill="#1d211c" fill-opacity="0.953"/>
<polygon points="145,23.5 138.75,28 132,28.25" fill="#766844" fill-opacity="0.592"/>
<polygon points="1.25,160 -15.5,209.75 1.25,268.75" fill="#333630" fill-opacity="0.91"/>
<polygon points="140.5,15.25 172,32.75 210.75,8.5" fill="#bdcdaf" fill-opacity="0.871"/>
<polygon points="156.5,62.5 143.5,62.75 157.5,56.25" fill="#cab68f" fill-opacity="0.463"/>
<polygon points="168.75,113.75 166,149 227.5,125.5" fill="#1c201f" fill-opacity="0.941"/>
<polygon points="91.75,95.5 78,95.5 89.25,114.5" fill="#3f3d24"/>
<polygon points="47.25,49 22.75,67.75 37.5,48.25" fill="#6c7342" fill-opacity="0.976"/>
<polygon points="136.25,92.5 130.5,102.5 94.25,92.25" fill="#75735e" fill-opacity="0.69"/>
<polygon points="15.75,146 2.5,147 5.25,117" fill="#4b4e37" fill-opacity="0.502"/>
<polygon points="164.25,194.5 166,133.25 174.5,164" fill="#1b2526" fill-opacity="0.537"/>
<polygon points="97,13.5 89.25,10.75 103.25,22.25" fill="#ffeeae" fill-opacity="0.639"/>
<polygon points="12,58.75 19.5,66 6.5,66" fill="#465b32" fill-opacity="0.533"/>
<polygon points="151,74.75 156.75,67.25 149,53" fill="#4a351d" fill-opacity="0.631"/>
<polygon points="151,93.75 168.25,89 173.25,47.75" fill="#69512b" fill-opacity="0.706"/>
<polygon points="152.75,150.5 164.25,140.25 150.5,170.75" fill="#bab388" fill-opacity="0.416"/>
<polygon points="27.5,93.5 9,94.75 38.25,108.75" fill="#8e8568" fill-opacity="0.604"/>
<polygon points="112.25,97 107.5,107.75 130.75,102.75" fill="#7b7460" fill-opacity="0.729"/>
<polygon points="131.75,31.25 124.5,41 127.75,32.5" fill="#706649" fill-opacity="0.647"/>
<polygon points="147,70.25 159.75,28 141,30.75" fill="#cca263" fill-opacity="0.647"/>
<polygon points="88.25,21.25 80.75,21.75 93.5,8.5" fill="#686a5a"/>
<polygon points="157.25,103.75 169.5,119.25 162.75,158.75" fill="#c0b373" fill-opacity="0.267"/>
<polygon points="185,94 174.25,104 189.75,109.5" fill="#414b03" fill-opacity="0.569"/>
<polygon points="93.25,8.75 96.5,-12.75 90.5,-15.5" fill="#616d4f" fill-opacity="0.737"/>
<polygon points="135.5,98.5 135.5,111.25 107,115.5" fill="#1c2323" fill-opacity="0.475"/>
<polygon points="82.25,271.5 94,248.5 101.75,268.25" fill="#0a0d0d" fill-opacity="0.898"/>
<polygon points="30.75,186 0.25,157.5 22.75,147" fill="#3d2c15" fill-opacity="0.565"/>
<polygon points="88.25,20.5 77.75,26.25 94.25,9.75" fill="#d9c894" fill-opacity="0.941"/>
<polygon points="56.25,35.25 -15.5,60.25 33.25,20.25" fill="#bfca9f" fill-opacity="0.667"/>
<polygon points="75.25,75 103,88.5 75.75,88.75" fill="#6f6546"/>
<polygon points="191.25,83 189,72.25 187.75,93.25" fill="#5b3e3a" fill-opacity="0.812"/>
<polygon points="91,31.75 93.5,65.75 84,66.25" fill="#625a44" fill-opacity="0.659"/>
<polygon points="76.25,135 86.25,122 86.75,135" fill="#5f6651" fill-opacity="0.443"/>
<polygon points="37.5,46.75 75.75,25.5 54.25,47.75" fill="#c4d3b2"/>
<polygon points="51.5,147.75 58.5,151 57.5,133.5" fill="#b5874d" fill-opacity="0.686"/>
<polygon points="97.5,21.25 115.75,40.25 91.5,25.75" fill="#dcc997" fill-opacity="0.714"/>
</svg>
